# AST/ASF file generated using VICON BodyLanguage
# -----------------------------------------------
:version 1.10
:name VICON
:units
  mass 1.0
  length 0.45
  angle deg
:documentation
   .ast/.asf automatically generated from VICON data using
   VICON BodyBuilder and BodyLanguage model FoxedUp or BRILLIANT.MOD
:root
   order TX TY TZ RX RY RZ
   axis XYZ
   position 0 0 0  
   orientation 0 0 0 
:bonedata
  begin
     id 1 
     name lhipjoint
     direction 0.543289 -0.788407 0.288535 
     length 2.57127 
     axis 0 0 0  XYZ
  end
  begin
     id 2 
     name lfemur
     direction 0.34202 -0.939693 0  
     length 8.47298  
     axis 0 0 20  XYZ
    dof rx ry rz
    limits (-160.0 20.0)
           (-70.0 70.0)
           (-60.0 70.0)
  end
  begin
     id 3 
     name ltibia
     direction 0.34202 -0.939693 0   
     length 8.13367   
     axis 0 0 20   XYZ
    dof rx
    limits (-10.0 170.0)
  end
  begin
     id 4 
     name lfoot
     direction 0.114037 -0.313314 0.942778   
     length 2.67113   
     axis -90 7.62852e-016 20   XYZ
    dof rx rz
    limits (-45.0 90.0)
           (-70.0 20.0)
  end
  begin
     id 5 
     name ltoes
     direction 1.536e-011 -4.21847e-011 1   
     length 1.32217   
     axis -90 7.62852e-016 20   XYZ
    dof rx
    limits (-90.0 20.0)
  end
  begin
     id 6 
     name rhipjoint
     direction -0.571293 -0.770752 0.282074   
     length 2.63017  
     axis 0 0 0  XYZ 
  end
  begin
     id 7 
     name rfemur
     direction -0.34202 -0.939693 0   
     length 8.60885   
     axis 0 0 -20   XYZ
    dof rx ry rz
    limits (-160.0 20.0)
           (-70.0 70.0)
           (-70.0 60.0)
  end
  begin
     id 8 
     name rtibia
     direction -0.34202 -0.939693 0   
     length 8.07673   
     axis 0 0 -20   XYZ
    dof rx
    limits (-10.0 170.0)
 end
 begin
     id 9 
     name rfoot
     direction -0.121336 -0.333368 0.934956   
     length 2.81602  
     axis -90 -7.62852e-016 -20   XYZ
    dof rx rz
    limits (-45.0 90.0)
           (-20.0 70.0)
  end
  begin
     id 10 
     name rtoes
     direction -1.53491e-011 -4.21808e-011 1   
     length 1.38905   
     axis -90 -7.62852e-016 -20   XYZ
    dof rx
    limits (-90.0 20.0)
  end
  begin
     id 11 
     name lowerback
     direction 0.0136776 0.999869 -0.00861835   
     length 2.14087   
     axis 0 0 0   XYZ
    dof rx ry rz
    limits (-20.0 45.0)
           (-30.0 30.0)
           (-30.0 30.0)
  end
  begin
     id 12 
     name upperback
     direction -0.00789158 0.999804 0.0181308   
     length 2.14151   
     axis 0 0 0   XYZ
    dof rx ry rz
    limits (-20.0 45.0)
           (-30.0 30.0)
           (-30.0 30.0)
  end
  begin
     id 13 
     name thorax
     direction -0.0135231 0.999666 0.0220247   
     length 2.13644   
     axis 0 0 0   XYZ
    dof rx ry rz
    limits (-20.0 45.0)
           (-30.0 30.0)
           (-30.0 30.0)
  end
  begin
     id 14 
     name lowerneck
     direction -0.0392259 0.997317 0.0618018   
     length 1.65045   
     axis 0 0 0   XYZ
    dof rx ry rz
    limits (-20.0 45.0)
           (-30.0 30.0)
           (-30.0 30.0)
  end
  begin
     id 15 
     name upperneck
     direction 0.0765547 0.994276 -0.0745319   
     length 1.66045   
     axis 0 0 0   XYZ
    dof rx ry rz
    limits (-20.0 45.0)
           (-30.0 30.0)
           (-30.0 30.0)
  end
  begin
     id 16
     name head
     direction 0.0241564 0.999031 -0.036785  
     length 1.66594  
     axis 0 0 0   XYZ
    dof rx ry rz
    limits (-20.0 45.0)
           (-30.0 30.0)
           (-30.0 30.0)
  end
  begin
     id 17 
     name lclavicle
     direction 0.967398 0.249018 0.0461573  
     length 3.75176  
     axis 0 0 0   XYZ
    dof ry rz
    limits (-20.0 10.0)
           (0.0 20.0)
  end
  begin
     id 18 
     name lhumerus
     direction 1 -4.48963e-011 -3.05005e-027   
     length 5.93342   
     axis 180 -30 -90   XYZ
    dof rx ry rz
    limits (-60.0 90.0)
           (-90.0 90.0)
           (-90.0 90.0)
  end
  begin
     id 19
     name lradius
     direction 1 -4.48957e-011 1.07006e-026   
     length 3.94763   
     axis 180 -30 -90   XYZ
    dof rx
    limits (-10.0 170.0)
  end
  begin
     id 20
     name lwrist
     direction 1 -4.48978e-011 1.92422e-026   
     length 1.97382   
     axis -1.18182e-014 90 90   XYZ
    dof ry
    limits (-180.0 0.0)
 end
  begin
     id 21 
     name lhand
     direction 1 -4.48931e-011 3.84844e-026   
     length 0.560187   
     axis -2.45563e-014 90 90   XYZ
    dof rx rz
    limits (-90.0 90.0)
           (-45.0 45.0)
  end
  begin
     id 22 
     name lfingers
     direction 1 -4.48952e-011 7.69687e-026   
     length 0.451637   
     axis -4.91126e-014 90 90   XYZ
    dof rx
    limits (0.0 90.0)
  end
  begin
     id 23
     name lthumb
     direction 0.707107 -6.34901e-011 0.707107   
     length 0.648463   
     axis -90 45 2.85299e-015   XYZ
    dof rx rz
    limits (-45.0 45.0)
           (-45.0 45.0)
  end
  begin
     id 24 
     name rclavicle
     direction -0.965946 0.258716 0.00371831   
     length 3.63667  
     axis 0 0 0   XYZ 
    dof ry rz
    limits (-10.0 20.0)
           (-20.0 0.0)
  end
  begin
     id 25 
     name rhumerus
     direction -1 -4.48966e-011 -1.78361e-028  
     length 6.28647   
     axis 180 30 90   XYZ
    dof rx ry rz
    limits (-90.0 60.0)
           (-90.0 90.0)
           (-90.0 90.0)
  end
  begin
     id 26 
     name rradius
     direction -1 -4.48961e-011 1.05248e-026   
     length 3.81645   
     axis 180 30 90   XYZ
    dof rx
    limits (-10.0 170.0)
  end
  begin
     id 27 
     name rwrist
     direction -1 -4.48979e-011 1.92422e-026   
     length 1.90822   
     axis -1.18182e-014 -90 -90   XYZ
    dof ry
    limits (-180.0 0.0)
  end
  begin
     id 28
     name rhand
     direction -1 -4.48937e-011 3.84844e-026   
     length 0.646185   
     axis -2.45563e-014 -90 -90   XYZ
    dof rx rz
    limits (-90.0 90.0)
           (-45.0 45.0)
  end
  begin
     id 29
     name rfingers
     direction -1 -4.48953e-011 7.69687e-026   
     length 0.520971   
     axis -4.91126e-014 -90 -90   XYZ
    dof rx
    limits (0.0 90.0)
  end
  begin
     id 30
     name rthumb
     direction -0.707107 -6.3494e-011 0.707107   
     length 0.748013   
     axis -90 -45 -2.85299e-015   XYZ
    dof rx rz
    limits (-45.0 45.0)
           (-45.0 45.0)
  end
:hierarchy
  begin
    root lhipjoint rhipjoint lowerback
    lhipjoint lfemur
    lfemur ltibia
    ltibia lfoot
    lfoot ltoes
    rhipjoint rfemur
    rfemur rtibia
    rtibia rfoot
    rfoot rtoes
    lowerback upperback
    upperback thorax
    thorax lowerneck lclavicle rclavicle
    lowerneck upperneck
    upperneck head
    lclavicle lhumerus
    lhumerus lradius
    lradius lwrist
    lwrist lhand lthumb
    lhand lfingers
    rclavicle rhumerus
    rhumerus rradius
    rradius rwrist
    rwrist rhand rthumb
    rhand rfingers
  end

#!OML:ASF H:\HAZMAT1\Patient Classification 1\Patient 3\Session 1\dancer.ASF
:FULLY-SPECIFIED
:DEGREES
89
upperback 2.085740 9.485900 -5.728090
rfoot -15.190600 -9.881400
lradius 15.952000
lthumb 17.409100 54.952202
rradius 50.067101
lwrist -26.639099
rhand -16.166901 -8.305880
rhumerus 35.153099 60.267200 -65.910202
lowerneck -5.637990 -6.932740 -3.479030
lhand -8.519330 25.711901
ltibia 91.433502
head 9.779780 -6.114030 3.320380
rwrist 20.601000
lfingers 7.125020
rtoes 9.048740
lowerback 0.003427 7.150120 5.583040
rfingers 7.125020
lclavicle 0.000000 0.000000
upperneck 24.417200 -13.782500 12.342200
rfemur -21.391800 6.242100 33.206200
thorax 4.092310 4.955650 -8.669630
rclavicle 0.000000 0.000000
rtibia 31.957100
lfoot 40.888199 1.660710
lhumerus -51.247398 10.900300 17.671900
rthumb 10.039100 -38.046398
root 35.579201 18.537399 23.039301 -721.690002 219.451996 -1070.449951
ltoes 40.129902
lfemur -79.735298 -23.600901 -1.768270
90
upperback 1.855180 6.840480 -5.150830
rfoot -18.117201 -9.990690
lradius 19.291800
lthumb 9.748580 57.534401
rradius 48.541000
lwrist -20.066799
rhand -17.800699 -7.712070
rhumerus 38.428501 61.188099 -62.531601
lowerneck -3.187480 -7.045790 -5.489020
lhand -16.468100 27.780100
ltibia 80.511398
head 8.216460 -6.298610 4.793080
rwrist 22.315701
lfingers 7.125020
rtoes 8.423400
lowerback -0.315668 5.174870 4.304110
rfingers 7.125020
lclavicle -0.000000 0.000000
upperneck 20.191099 -13.762100 15.433400
rfemur -31.369600 12.271500 29.129999
thorax 3.256390 3.549170 -7.523020
rclavicle -0.000000 0.000000
rtibia 39.677898
lfoot 10.436500 -8.676810
lhumerus -41.643002 7.939400 18.340099
rthumb 8.462650 -37.522499
root 35.410702 18.243999 23.619801 -716.231018 216.000000 -1071.630005
ltoes 25.206800
lfemur -49.701000 -22.621401 1.340570
91
upperback 1.717120 4.548960 -5.084780
rfoot -17.406900 -16.664900
lradius 18.951200
lthumb 10.679300 55.022701
rradius 46.701401
lwrist -20.407900
rhand -19.925100 -6.777910
rhumerus 40.419899 61.711800 -60.168098
lowerneck -1.650070 -8.776260 -7.163760
lhand -15.503300 25.314100
ltibia 46.083199
head 7.244250 -7.315760 5.402310
rwrist 23.732201
lfingers 7.125020
rtoes 4.443220
lowerback -0.096259 3.454440 4.099760
rfingers 7.125020
lclavicle -0.000000 -0.000000
upperneck 16.655500 -15.584600 16.868601
rfemur -41.488098 15.569700 17.975401
thorax 2.579760 2.373340 -7.486590
rclavicle -0.000000 -0.000000
rtibia 42.018799
lfoot -24.441099 -6.544420
lhumerus -39.140999 6.646920 23.377501
rthumb 6.412120 -36.660801
root 34.996201 18.288900 24.785400 -708.231018 219.781006 -1075.630005
ltoes 0.033290
lfemur -27.882900 -28.388000 -2.848890
92
upperback 2.314430 3.030830 -3.985600
rfoot 3.774380 -20.814301
lradius 17.780399
lthumb 11.934400 55.029900
rradius 46.105801
lwrist -23.432501
rhand -23.535000 -6.655030
rhumerus 46.137100 61.097099 -56.399200
lowerneck -1.674500 -8.933180 -7.139670
lhand -14.201900 25.390100
ltibia 37.782200
head 6.695040 -7.268940 5.661120
rwrist 22.593000
lfingers 7.125020
rtoes 7.465850
lowerback 1.555130 2.296940 3.626720
rfingers 7.125020
lclavicle -0.000000 -0.000000
upperneck 14.751000 -15.509900 17.657400
rfemur -56.332100 11.182500 10.414700
thorax 1.928050 1.586570 -6.161860
rclavicle -0.000000 -0.000000
rtibia 43.972198
lfoot -22.099800 -3.532100
lhumerus -37.997398 7.627040 27.927999
rthumb 2.926440 -36.614700
root 34.589802 18.652399 26.613400 -703.447998 219.375000 -1076.800049
ltoes 8.813130
lfemur -31.889400 -20.250401 -7.822360
93
upperback 1.990600 3.231390 -1.331250
rfoot -51.091099 -37.333801
lradius 17.481800
lthumb 17.128599 52.462101
rradius 41.746799
lwrist -25.049299
rhand -23.166500 -7.258310
rhumerus 56.389500 55.464500 -50.270401
lowerneck -2.125100 -9.911650 -7.133100
lhand -8.810760 23.197100
ltibia 29.789900
head 6.739500 -7.767940 5.535920
rwrist 23.449600
lfingers 7.125020
rtoes 43.317200
lowerback 2.319030 2.379810 6.469950
rfingers 7.125020
lclavicle 0.000000 0.000000
upperneck 14.086300 -16.679501 17.755100
rfemur -62.208302 23.805901 -26.141100
thorax 1.197530 1.694470 -5.033490
rclavicle 0.000000 0.000000
rtibia 35.931801
lfoot -14.629200 4.481390
lhumerus -39.944801 6.906450 32.514500
rthumb 3.282290 -37.212799
root 34.325600 19.259001 27.927999 -699.424988 218.313004 -1071.630005
ltoes 8.361820
lfemur -39.247002 -20.366501 -1.977510
94
upperback 0.254123 5.748040 1.516210
rfoot -33.029499 -51.890301
lradius 14.070800
lthumb 15.049000 55.681301
rradius 33.486900
lwrist -34.991299
rhand -24.471001 -11.868800
rhumerus 58.580700 50.709000 -52.282001
lowerneck -1.935340 -13.166800 -9.774780
lhand -10.970400 26.248199
ltibia 32.385700
head 8.500070 -10.168600 5.186080
rwrist 20.542200
lfingers 7.125020
rtoes 47.393398
lowerback 1.113060 4.323440 9.353680
rfingers 7.125020
lclavicle -0.000000 0.000000
upperneck 16.564501 -21.743200 17.545601
rfemur -5.163010 28.908501 -5.494790
thorax 0.407897 2.838220 -3.638250
rclavicle -0.000000 0.000000
rtibia 20.279100
lfoot -14.340300 7.611130
lhumerus -57.684502 12.165500 18.151400
rthumb 2.022460 -41.839001
root 34.076801 19.242001 28.301300 -700.926025 222.406006 -1066.859985
ltoes 9.863440
lfemur -44.921299 -24.597000 4.226300
95
upperback -1.490980 8.763270 0.216188
rfoot 31.203501 -29.542000
lradius 12.180600
lthumb 17.309799 62.188202
rradius 31.789600
lwrist -37.924801
rhand -25.101801 -18.479401
rhumerus 58.483200 43.707298 -54.466400
lowerneck -1.658270 -14.419800 -9.620310
lhand -8.622500 32.938999
ltibia 34.246101
head 7.852660 -10.778800 5.361540
rwrist 14.657800
lfingers 7.125020
rtoes 37.098202
lowerback -1.315280 6.709360 10.273300
rfingers 7.125020
lclavicle 0.000000 -0.000000
upperneck 13.774000 -22.992001 18.665100
rfemur 20.007900 1.670600 13.065900
thorax 0.670826 4.302430 -5.171700
rclavicle 0.000000 -0.000000
rtibia 15.384400
lfoot -15.418800 15.387500
lhumerus -73.777603 15.557400 12.192600
rthumb 1.413280 -48.454399
root 34.178600 19.158300 28.743999 -695.544006 218.179001 -1064.900024
ltoes 15.242400
lfemur -52.211700 -19.520599 5.560790
96
upperback -1.791630 8.472860 -1.029230
rfoot 35.127602 -19.421400
lradius 12.807500
lthumb 13.301500 66.125702
rradius 29.058100
lwrist -37.473202
rhand -27.901800 -24.081301
rhumerus 36.850399 13.198600 -46.525398
lowerneck -4.006740 -12.047200 -9.321440
lhand -12.783900 36.570202
ltibia 35.310902
head 8.026640 -9.037430 5.264680
rwrist 11.881300
lfingers 7.125020
rtoes 31.985201
lowerback -2.006120 6.470030 8.006740
rfingers 7.125020
lclavicle 0.000000 0.000000
upperneck 15.195600 -19.569401 17.442699
rfemur 14.837300 -5.353360 19.053301
thorax 0.564874 4.180830 -5.196590
rclavicle 0.000000 0.000000
rtibia 20.738001
lfoot -15.333700 20.604099
lhumerus -74.283600 21.369801 7.835230
rthumb -1.291050 -54.057098
root 34.169800 19.064899 29.479200 -688.351013 206.089005 -1067.060059
ltoes 19.388100
lfemur -57.377300 -13.205400 1.740610
97
upperback -0.897236 2.751110 -0.511787
rfoot 32.300499 -13.480800
lradius 16.313299
lthumb 13.715500 59.471802
rradius 26.866301
lwrist -26.032301
rhand -27.092800 -31.389299
rhumerus -15.178200 -7.079850 -20.022301
lowerneck -8.426420 -7.659960 -5.537210
lhand -12.354300 29.943800
ltibia 38.283501
head 8.481120 -5.838680 2.621090
rwrist 6.261990
lfingers 7.125020
rtoes 27.326900
lowerback -0.994536 2.110070 6.198980
rfingers 7.125020
lclavicle -0.000000 0.000000
upperneck 19.818800 -12.617600 9.163080
rfemur 2.631400 0.464900 21.747299
thorax -0.050236 1.343000 -3.967500
rclavicle -0.000000 0.000000
rtibia 25.547701
lfoot -16.738701 24.720800
lhumerus -50.836201 20.475000 8.202750
rthumb -0.509684 -61.368500
root 34.209499 18.893400 30.006701 -686.812012 194.750000 -1070.030029
ltoes 21.080000
lfemur -58.436798 -11.414600 -2.705840
98
upperback 1.733240 -7.285610 0.347317
rfoot -6.999330 -11.775600
lradius 17.403900
lthumb 11.209300 54.117298
rradius 20.409100
lwrist -26.869101
rhand -21.826900 -35.113899
rhumerus -52.053398 -11.494300 -11.972900
lowerneck -10.693900 -0.252837 1.005590
lhand -14.953800 24.436701
ltibia 39.685200
head 7.601100 0.340473 -1.672120
rwrist 12.623300
lfingers 7.125020
rtoes -5.859100
lowerback -1.262880 -5.360060 5.049710
rfingers 7.125020
lclavicle 0.000000 -0.000000
upperneck 18.881300 1.074840 -4.989730
rfemur -10.855500 4.733270 19.369900
thorax 1.912340 -3.562320 -2.617990
rclavicle 0.000000 -0.000000
rtibia 28.963100
lfoot -16.658100 26.187799
lhumerus -8.278340 29.362101 17.822500
rthumb 4.575960 -65.044502
root 34.855400 18.744499 31.026501 -689.176025 184.778000 -1074.339966
ltoes 21.434700
lfemur -57.237000 -9.059100 -7.472790
99
upperback 3.561430 -13.220200 0.123728
rfoot -24.151501 -15.858500
lradius 17.078800
lthumb 15.555200 42.945599
rradius 18.588699
lwrist -22.922199
rhand -19.560200 -30.310400
rhumerus -68.217003 -12.913200 -27.396400
lowerneck -9.656050 5.811400 4.516100
lhand -10.444900 13.551200
ltibia 37.463200
head 6.373020 4.134080 -3.992090
rwrist 20.211700
lfingers 7.125020
rtoes -24.225901
lowerback -1.881500 -9.790870 4.903060
rfingers 7.125020
lclavicle 0.000000 -0.000000
upperneck 12.908100 9.633920 -12.919600
rfemur -15.132400 7.724030 16.619900
thorax 3.677150 -6.415000 -3.065880
rclavicle 0.000000 -0.000000
rtibia 29.682100
lfoot -11.040900 27.297001
lhumerus 32.874401 7.490640 47.826801
rthumb 6.764410 -60.182400
root 35.655102 18.470600 33.039600 -693.421021 178.175995 -1078.939941
ltoes 22.309000
lfemur -56.818501 -5.401660 -11.716800
100
upperback 3.269410 -15.522300 0.982587
rfoot -28.283199 -18.416500
lradius 53.199299
lthumb 30.864100 34.186501
rradius 20.527201
lwrist 13.908900
rhand -19.980700 -28.021500
rhumerus -61.438099 -8.079950 -46.159302
lowerneck -7.513370 8.980400 6.167510
lhand 5.518220 6.759230
ltibia 34.239498
head 5.987320 6.382880 -5.434600
rwrist 18.803301
lfingers 7.125020
rtoes -5.948810
lowerback -1.285750 -11.540300 5.053700
rfingers 7.125020
lclavicle 0.000000 0.000000
upperneck 9.805440 14.260700 -17.917801
rfemur -18.873100 8.035290 13.933400
thorax 3.068800 -7.592690 -2.148950
rclavicle 0.000000 0.000000
rtibia 26.802401
lfoot 0.868540 40.014801
lhumerus 39.716900 -29.660000 33.352699
rthumb 6.358440 -57.906101
root 36.498501 18.730000 35.135502 -695.919006 170.817993 -1083.180054
ltoes 35.497101
lfemur -60.324799 -6.523810 -5.814790
